Subj06walk_45
version=1
nRows=47
nColumns=19
inDegrees=no
endheader
time	l_ground_force_vx	l_ground_force_vy	l_ground_force_vz	l_ground_force_px	l_ground_force_py	l_ground_force_pz	ground_force_vx	ground_force_vy	ground_force_vz	ground_force_px	ground_force_py	ground_force_pz	l_ground_torque_x	l_ground_torque_y	l_ground_torque_z	ground_torque_x	ground_torque_y	ground_torque_z	
0	12.5946733262258	491.68041430018	17.5091136725771	-0.101370274954926	0	-0.0553162708286412	0	0	0	0	0	0	0	-0.485911858435415	0	0	0	0
0.01	19.2191311971679	513.314183005521	18.5812040509906	-0.113599223186771	0	-0.0556387167161774	0	0	0	0	0	0	0	-1.24573579344235	0	0	0	0
0.02	26.2605195043612	536.593178292629	19.7832002706973	-0.124860876054311	0	-0.0562589017185504	0	0	0	0	0	0	0	-1.88235607899656	0	0	0	0
0.03	33.0369406739994	560.327504320482	20.9879073539465	-0.134841531415745	0	-0.0570656901182608	0	0	0	0	0	0	0	-2.2777734805985	0	0	0	0
0.04	39.4507541969984	583.122946873294	22.1357637850792	-0.143845778442309	0	-0.0579191829916015	0	0	0	0	0	0	0	-2.44724347031343	0	0	0	0
0.05	45.9735802062116	603.407166428892	23.1360276934373	-0.152615013601286	0	-0.0587065549231506	0	0	0	0	0	0	0	-2.47090224694929	0	0	0	0
0.06	52.9236636352953	619.594338265011	24.1690820158588	-0.161680207021807	0	-0.0592339486966795	0	0	0	0	0	0	0	-2.36355658543982	0	0	0	0
0.07	60.2815170736129	630.379463582271	25.1633581234943	-0.171285219831661	0	-0.0593761942279412	0	0	0	0	0	0	0	-2.07120025165711	0	0	0	0
0.08	67.9358438567645	634.813764790468	25.6605895944743	-0.181597817743486	0	-0.0591822376517606	11.5376341878799	21.7270313550387	-0.534936825676061	0.355364791437355	0	0.0930805348035701	0	-1.64907578797311	0	0	1.10585848176152	0
0.09	75.4041314647406	631.935603577046	25.3934469535304	-0.19246752372813	0	-0.0586690743008934	16.8444021672411	51.1728867013016	-0.267632870846939	0.285502294123234	0	0.076515421360644	0	-1.24562391289404	0	0	1.21516142845594	0
0.1	81.9275184269151	620.827228615495	24.3607520023521	-0.203483552430718	0	-0.057918619460527	20.3906510383489	90.708787725249	1.42467673186691	0.253300584127172	0	0.0693980628780159	0	-1.00641988190323	0	0	0.828853524560181	0
0.11	87.1095219072866	600.096002172053	22.6520608251125	-0.214472520721121	0	-0.056981456911558	17.2343684475273	135.439516634663	5.47601669170701	0.232482139058174	0	0.0647418337667159	0	-1.13350971729381	0	0	-0.617763005171061	0
0.12	90.777938950767	568.249137959818	19.955067418121	-0.225668700779359	0	-0.0560168468802159	8.21523186827973	184.466214533411	11.1879549353443	0.217076012678886	0	0.0613232873248484	0	-1.78863649675349	0	0	-2.80161208283547	0
0.13	92.305301060052	524.290348049668	16.0441300558252	-0.23726718089648	0	-0.0551112561008658	-4.80293353547513	238.335842509686	16.8656107291677	0.205761500627756	0	0.0594085080496798	0	-2.93316074514668	0	0	-5.19141282545725	0
0.14	90.7751729863836	468.294013250235	11.079617935387	-0.249516520050074	0	-0.0541532299550633	-19.9694507923686	298.491765156887	20.5769888560801	0.197617247373126	0	0.0592036522004068	0	-4.38829790710495	0	0	-7.1715681340104	0
0.15	85.3957158138233	402.10619454236	5.58401172335898	-0.262424503069283	0	-0.0530843695799418	-35.5962791285643	364.87520242992	21.0392651236342	0.191912408981903	0	0.0604928769272818	0	-5.85056634855128	0	0	-8.3620892208126	0
0.16	75.6455651464293	329.515969099633	0.588928574671787	-0.275517479650964	0	-0.0518443170245221	-50.8462534567412	431.215342166379	17.6550482369189	0.188233606437715	0	0.0624764326723764	0	-6.83152404218797	0	0	-8.73673999957722	0
0.17	62.1530039040725	255.976525008961	-2.62853160264079	-0.288566061386523	0	-0.0501458373289557	-63.8359420166556	486.671339823815	11.5662657532176	0.185172218272964	0	0.0646546498567784	0	-6.96727348759662	0	0	-8.51149828379907	0
0.18	47.2813955475809	187.135080525135	-3.46172431179573	-0.302267415325869	0	-0.0473906247919212	-72.2226117182056	522.666700557247	4.25802668345826	0.181088966150859	0	0.0667877050596814	0	-6.37380853617627	0	0	-7.91988188292061	0
0.19	33.9076352746674	127.506144904945	-2.27391527465807	-0.318005077370215	0	-0.0429860350965484	-75.6982271662264	539.856255755808	-4.15682638858527	0.175172336156821	0	0.0690323957852995	0	-5.39152493768364	0	0	-6.89272064468457	0
0.2	23.2402979630067	79.8927439467854	-0.0249287811549857	-0.33662129664275	0	-0.0364981277537092	-75.7691191312434	546.441629331625	-13.7082860760085	0.167546476982278	0	0.0713994648751703	0	-4.2458227879601	0	0	-5.55049671658383	0
0.21	15.231558064393	45.1288230568553	2.02802090356698	-0.357303392765933	0	-0.0262917995445769	-73.6438309289427	551.12219544241	-22.9438021409487	0.158598119921437	0	0.0737706270945364	0	-3.16734580672468	0	0	-4.20669166785191	0
0.22	9.52372874243841	22.095072973783	3.209052859945	-0.374510814383808	0	-0.00641161759310232	-70.256340379212	558.111700289386	-30.1320864413907	0.149257375501786	0	0.0757056889610106	0	-2.33307487150669	0	0	-3.10084110847215	0
0.23	0	0	0	0	0	0	-66.3447552765742	567.549451383902	-34.454047654916	0.140073385964376	0	0.0770731193287574	0	0	0	0	-2.36754997236146	0
0.24	0	0	0	0	0	0	-62.4765560159282	577.027998277596	-36.1051059780401	0.131232181085415	0	0.0778272790437695	0	0	0	0	-2.14108479233956	0
0.25	0	0	0	0	0	0	-58.6925591495459	583.762512328826	-36.0217015261776	0.122663528650234	0	0.0780753478974571	0	0	0	0	-2.33738971230428	0
0.26	0	0	0	0	0	0	-54.7497552473064	585.550041421773	-34.9800063299917	0.114133653824092	0	0.0778410732606019	0	0	0	0	-2.65865026908852	0
0.27	0	0	0	0	0	0	-50.4081774310208	581.32742791638	-33.7252304107558	0.105026219965116	0	0.0772746013421058	0	0	0	0	-2.80880761313585	0
0.28	0	0	0	0	0	0	-45.6482286267546	570.853791375219	-32.6687663253968	0.0950826442121203	0	0.0764765009857079	0	0	0	0	-2.62843750132816	0
0.29	0	0	0	0	0	0	-40.7229585122665	555.330371110815	-31.9221656562479	0.0845093850553092	0	0.0756330151946735	0	0	0	0	-2.21857431911046	0
0.3	0	0	0	0	0	0	-36.2675511950857	537.345470533942	-31.4080917024673	0.073945506357785	0	0.0746760469328708	0	0	0	0	-1.92741923969405	0
0.31	0	0	0	0	0	0	-32.7188126523075	520.586020134884	-30.6670511939862	0.0637954177848559	0	0.0736171748189177	0	0	0	0	-1.8276668252449	0
0.32	0	0	0	0	0	0	-30.0036162833507	507.057287223063	-29.1527647515345	0.0543449926924633	0	0.0723771187290659	0	0	0	0	-1.81096569418547	0
0.33	0	0	0	0	0	0	-27.5643239442509	496.517926650127	-26.6862892263264	0.0454432672887021	0	0.0710789791900609	0	0	0	0	-1.67890113838301	0
0.34	0	0	0	0	0	0	-24.8434203462857	488.344082355498	-23.834859096295	0.036666242584508	0	0.0699328442963191	0	0	0	0	-1.26595752495829	0
0.35	0	0	0	0	0	0	-21.5722285240852	482.006515501256	-21.2902313508652	0.0280283505355047	0	0.0690411707966344	0	0	0	0	-0.572848703625982	0
0.36	0	0	0	0	0	0	-18.1324931435347	477.175066127528	-19.2506238499207	0.0200068736293043	0	0.0683612583973051	0	0	0	0	0.0974634308178371	0
0.37	0	0	0	0	0	0	-15.0941484896138	473.955610334365	-17.6156449438518	0.0131806356616363	0	0.0678310602024209	0	0	0	0	0.550023505716526	0
0.38	0	0	0	0	0	0	-12.8570510211586	472.518668095305	-16.3235476327158	0.00758221616784622	0	0.0673416410516345	0	0	0	0	0.810698751253154	0
0.39	0	0	0	0	0	0	-11.2415704948618	472.714873154412	-15.365960643391	0.00243461818595422	0	0.0668924722607586	0	0	0	0	0.964123740158826	0
0.4	0	0	0	0	0	0	-9.98930390986272	474.137926615159	-14.7059363972389	-0.0027237811686892	0	0.0665803682449238	0	0	0	0	0.976498536355945	0
0.41	0	0	0	0	0	0	-8.89220931800832	476.178091043444	-14.2834738326282	-0.00818951368267276	0	0.0665501591281823	0	0	0	0	0.906838989235304	0
0.42	0	0	0	0	0	0	-7.73185148088028	477.710392621993	-13.9918208509274	-0.0141830704540686	0	0.0667302814027046	0	0	0	0	0.944586740862183	0
0.43	0	0	0	0	0	0	-6.5804807527724	477.944400054451	-13.956942316556	-0.0204446726526412	0	0.0670711023908383	0	0	0	0	0.981862476624468	0
0.44	0	0	0	0	0	0	-5.65004386150642	476.705221929947	-14.2232856550991	-0.0267865591027977	0	0.0674439706315626	0	0	0	0	0.816070836429456	0
0.45	0	0	0	0	0	0	-4.85176471951096	474.589187341869	-14.727096630913	-0.033720758082364	0	0.0677938191644233	0	0	0	0	0.558489645683009	0
0.46	0	0	0	0	0	0	-3.65373528357614	472.37224552853	-15.3465456042723	-0.0419163645116627	0	0.0679542667834619	0	0	0	0	0.524836815844347	0
